USFL
nRows=177
nColumns=2
inDegrees=yes
endheader
time	soleus_r	
3.93725	 19.667076	
3.99974	 19.545558	
4.06224	 19.542125	
4.12474	 19.511816	
4.18723	 19.529463	
4.24973	 19.535421	
4.31222	 19.551669	
4.37472	 19.557770	
4.43722	 19.558657	
4.49971	 19.567207	
4.56221	 19.594947	
4.6247	 19.584745	
4.6872	 19.622709	
4.7497	 19.633315	
4.81219	 19.625910	
4.87469	 19.629617	
4.93718	 19.632175	
4.99968	 19.631016	
5.06218	 19.679165	
5.12467	 19.675459	
5.18717	 19.692450	
5.24966	 19.737442	
5.31216	 19.733349	
5.37466	 19.743952	
5.43715	 19.776866	
5.49965	 19.750255	
5.56214	 19.715278	
5.62464	 19.804391	
5.68714	 15.706738	
5.74963	 15.787978	
5.81213	 15.845142	
5.87462	 15.802610	
5.93712	 15.753903	
5.99962	 15.840995	
6.06211	 15.876915	
6.12461	 15.887850	
6.1871	 15.939070	
6.2496	 16.059321	
6.3121	 16.044067	
6.37459	 16.056593	
6.43709	 16.086532	
6.49958	 16.164278	
6.56208	 16.173767	
6.62458	 16.174687	
6.68707	 16.237463	
6.74957	 16.198924	
6.81206	 16.158910	
6.87456	 16.139862	
6.93706	 16.217320	
6.99955	 16.141614	
7.06205	 16.129917	
7.12454	 16.039755	
7.18704	 15.884799	
7.24954	 15.759550	
7.31203	 15.849575	
7.37453	 15.872740	
7.43702	 15.876331	
7.49952	 15.946355	
7.56202	 15.930072	
7.62451	 16.005114	
7.68701	 16.184777	
7.7495	 16.396384	
7.812	 16.373300	
7.8745	 18.000022	
7.93699	 18.024393	
7.99949	 18.040614	
8.06198	 18.079694	
8.12448	 18.170010	
8.18698	 18.102267	
8.24947	 18.105441	
8.31197	 18.116713	
8.37446	 18.086717	
8.43696	 18.130300	
8.49946	 18.170028	
8.56195	 18.172990	
8.62445	 18.150465	
8.68694	 17.916290	
8.74944	 17.760591	
8.81194	 17.554923	
8.87443	 17.337467	
8.93693	 17.205981	
8.99942	 17.080334	
9.06192	 17.039459	
9.12442	 16.945449	
9.18691	 16.864989	
9.24941	 16.780077	
9.3119	 16.768612	
9.3744	 16.753211	
9.4369	 16.874715	
9.49939	 16.928128	
9.56189	 17.076542	
9.62438	 17.156061	
9.68688	 17.275628	
9.74938	 17.469029	
9.81187	 17.733067	
9.87437	 17.815010	
9.93686	 17.925250	
9.99936	 17.917249	
10.0619	 17.882842	
10.1244	 17.831372	
10.1868	 17.839599	
10.2493	 17.823263	
10.3118	 17.788429	
10.3743	 17.791028	
10.4368	 17.728112	
10.4993	 17.701112	
10.5618	 17.633051	
10.6243	 17.580185	
10.6868	 17.587929	
10.7493	 17.565840	
10.8118	 17.560228	
10.8743	 17.578302	
10.9368	 17.550264	
10.9993	 17.563774	
11.0618	 17.567071	
11.1243	 17.606939	
11.1868	 17.630179	
11.2493	 17.695443	
11.3118	 17.791701	
11.3743	 17.850172	
11.4368	 17.770408	
11.4993	 17.747854	
11.5618	 17.691233	
11.6243	 17.697959	
11.6868	 17.534079	
11.7492	 17.478877	
11.8117	 17.526166	
11.8742	 17.510449	
11.9367	 17.533600	
11.9992	 19.072637	
12.0617	 19.110651	
12.1242	 19.104511	
12.1867	 19.093839	
12.2492	 18.981556	
12.3117	 18.948448	
12.3742	 18.999837	
12.4367	 18.909990	
12.4992	 18.902289	
12.5617	 18.930767	
12.6242	 18.994383	
12.6867	 19.050039	
12.7492	 19.006386	
12.8117	 18.979800	
12.8742	 18.957010	
12.9367	 18.972170	
12.9992	 18.927932	
13.0617	 18.924336	
13.1242	 18.894857	
13.1867	 18.922987	
13.2492	 18.964525	
13.3116	 18.978205	
13.3741	 18.985234	
13.4366	 19.000483	
13.4991	 19.029125	
13.5616	 19.013020	
13.6241	 18.983117	
13.6866	 18.949145	
13.7491	 18.974129	
13.8116	 18.981200	
13.8741	 18.991158	
13.9366	 18.941396	
13.9991	 18.898370	
14.0616	 18.852592	
14.1241	 18.762913	
14.1866	 18.751076	
14.2491	 18.784300	
14.3116	 18.820011	
14.3741	 18.823962	
14.4366	 18.814497	
14.4991	 18.820866	
14.5616	 18.815067	
14.6241	 18.813197	
14.6866	 18.835916	
14.7491	 18.831930	
14.8116	 18.906441	
14.874	 18.957305	
14.9365	 18.931303	
